<?xml version="1.0" encoding="UTF-8"?>
<!DOCTYPE svg PUBLIC "-//W3C//DTD SVG 1.1//EN" "http://www.w3.org/Graphics/SVG/1.1/DTD/svg11.dtd">
<!-- Creator: CorelDRAW Standard 2024 (Wersja próbna) -->
<svg xmlns="http://www.w3.org/2000/svg" xml:space="preserve" width="1842px" height="1735px" version="1.1" style="shape-rendering:geometricPrecision; text-rendering:geometricPrecision; image-rendering:optimizeQuality; fill-rule:evenodd; clip-rule:evenodd"
viewBox="0 0 748.107 704.65"
 xmlns:xlink="http://www.w3.org/1999/xlink"
 xmlns:xodm="http://www.corel.com/coreldraw/odm/2003">
 <defs>
  <style type="text/css">
   <![CDATA[
    .str0 {stroke:white;stroke-width:7.195;stroke-miterlimit:22.9256}
    .str1 {stroke:white;stroke-width:1.199;stroke-miterlimit:22.9256}
    .fil0 {fill:#00004A}
    .fil1 {fill:#00004A}
    .fil2 {fill:red}
    .fil3 {fill:white}
   ]]>
  </style>
 </defs>
 <g id="Warstwa_x0020_1">
  <metadata id="CorelCorpID_0Corel-Layer"/>
  <path class="fil0" d="M454.063 618.549l0 0.406 -0.474 -0.339 0.474 -0.067zm-224.189 -22.744l0.407 0 -0.339 0.474 -0.068 -0.474zm-79.603 -41.02l0.406 0 -0.338 0.474 -0.068 -0.474zm-45.893 -49.143l0.406 0 -0.339 0.474 -0.067 -0.474zm558.846 -316.788l0.406 0 -0.338 0.474 -0.068 -0.474zm-37.364 -53.204l0.406 0 -0.339 0.474 -0.067 -0.474zm-508.08 -1.624l0 0.406 -0.474 -0.339 0.474 -0.067zm0 0c0,-3.878 -0.042,-7.377 2.736,-9.855 2.224,-1.984 4.822,-3.941 6.68,-6.316l2.694 -3.399c0.571,-0.724 0.92,-0.894 1.537,-1.711 0.59,-0.78 0.913,-1.19 1.386,-1.864 0.9,-1.284 1.641,-2.473 2.597,-3.901 2.81,-4.201 4.237,-8.322 5.684,-13.404 3.082,-10.819 3.054,-24.765 0.648,-35.092 -2.322,1.555 -4.392,3.736 -6.373,5.8l-1.736 1.975c-0.079,0.087 -0.279,0.342 -0.356,0.43 -3.15,3.602 -6.408,6.794 -9.08,10.802 -7.362,11.047 -12.348,23.422 -11.293,37.448 0.094,1.252 0.518,4.276 0.712,5.381 0.346,1.981 0.531,3.304 0.52,5.593 -0.017,3.606 -1.034,7.314 -1.878,10.307 -1.079,3.825 -1.63,5.641 -3.918,8.266 -0.965,1.107 -1.64,2.294 -2.5,3.592 -0.91,1.375 -1.598,2.25 -2.571,3.522 -1.087,1.42 -1.341,2.167 -2.645,3.446 -3.377,3.312 -7.513,10.023 -10.044,14.325l-8.003 13.116c-0.976,1.864 -2.067,4.404 -3.786,5.555 0,-9.705 1.893,-9.334 5.343,-16.182 3.384,-6.715 7.049,-12.319 7.645,-20.378 0.775,-10.46 0.378,-28.2 -4.459,-37.763l-1.625 -4.874c-2.891,0.772 -7.607,10.743 -9.204,13.946 -1.211,2.429 -2.888,5.317 -3.744,7.628 -1.034,2.79 -2.152,5.978 -2.897,8.881 -2.114,8.242 -2.814,16.116 -1.056,25.029 0.954,4.833 2.936,8.837 4.465,13.406 1.868,5.582 2.067,14.954 0.31,20.518 -1.472,4.66 -10.073,23.061 -13.518,32.782 -1.117,3.151 -5.161,15.569 -5.222,18.334l-0.813 0c-0.337,-4.053 -2.146,-7.237 -0.573,-11.133 5.097,-12.627 6.417,-24.596 3.178,-38.584 -0.461,-1.99 -0.928,-3.361 -1.386,-5.112 -1.645,-6.299 -4.859,-12.288 -8.135,-17.858 -0.798,-1.358 -1.697,-2.437 -2.558,-3.94 -1.135,-1.98 -1.153,-2.344 -3.116,-3.382 -0.665,1.256 -1.247,1.896 -1.786,3.494l-2.518 8.447c-0.444,1.812 -0.826,2.651 -1.22,4.466 -1.343,6.189 -2.192,12.431 -2.192,19.739 0,4.268 0.126,6.593 0.842,10.123 0.561,2.766 1.201,6.04 2.279,8.688 1.129,2.776 2.054,4.973 3.539,7.425 1.531,2.527 2.913,4.387 4.549,6.823 3.267,4.865 5.302,9.762 6.167,15.765 1.371,9.519 -3.736,27.362 -4.379,38.902 -0.39,6.981 -1.219,13.973 -1.219,21.119 -1.193,-0.873 -1.756,-2.698 -2.44,-4.058 -3.621,-7.197 3.056,-19.405 -5.737,-41.781 -2.262,-5.754 -7.953,-14.046 -12.024,-18.843 -0.756,-0.89 -0.7,-1.099 -1.623,-2.033l-5.273 -5.216c-1.61,-1.635 -3.638,-3.846 -5.801,-4.423 0,6.785 -2.402,14.212 -1.595,21.089 0.379,3.225 0.711,6.908 1.234,10.139 1.613,9.975 4.182,16.428 9.939,24.989l3.41 4.306c3.805,4.752 10.727,9.283 13.011,13.794 4.793,9.464 6.951,15.803 6.894,28.035 -0.011,2.47 0.419,2.951 0.421,5.264 0.006,5.592 0.579,10.515 1.248,16.216 0.35,2.977 0.8,6.824 1.408,9.964 0.67,3.464 1.523,6.631 1.801,9.977 -0.063,-0.072 -0.164,-0.279 -0.188,-0.218l-5.342 -9.279c-1.558,-3.905 -1.609,-8.489 -2.339,-12.688 -1.195,-6.869 -3.833,-13.144 -7.402,-18.998l-6.254 -8.772c-0.686,-0.943 -1.059,-1.265 -1.93,-2.132l-12.366 -10.377c-3.06,-2.038 -6.134,-4.374 -9.395,-6.046l-5.145 -2.564c0,6.229 2.105,15.745 3.574,21.606 0.882,3.521 1.764,6.373 3.048,9.543 2.676,6.607 8.583,17.069 14.016,21.318l5.118 4.222c2.532,1.859 4.796,3.85 7.553,5.445 1.442,0.834 2.666,1.327 4.221,2.276 1.595,0.974 2.295,1.215 3.599,2.493l3.684 4.439c0.065,0.102 0.239,0.407 0.308,0.505l4.434 6.125c1.784,2.517 2.736,5.694 3.565,9.025 1.722,6.923 3.999,12.829 5.848,19.739 1.243,4.643 3.379,9.532 4.952,14.137 1.595,4.673 4.424,9.219 5.53,13.965l-4.384 -3.333c-4.371,-4.371 -5.708,-10.855 -7.963,-16.406 -1.215,-2.993 -5.111,-10.103 -7.246,-12.655 -4.06,-4.851 -3.498,-4.071 -7.712,-8.127l-16.065 -11.82 -5.91 -2.757c-1.848,-0.934 -3.819,-1.813 -5.603,-2.52 -3.806,-1.506 -7.948,-3.141 -12.13,-4.115 0.202,0.865 0.397,1.596 0.646,2.603l4.633 12.83c0.721,1.581 1.314,3.29 2.029,4.876l5.038 8.771c5.073,7.556 10.953,14.881 18.599,19.984l6.419 4.14c6.431,3.185 8.312,3.511 15.284,5.836 6.018,2.006 8.715,3.979 12.833,7.88 0.919,0.871 1.152,0.793 1.977,1.678l1.68 1.975c4.845,5.065 7.094,11.322 10.789,17.235 4.565,7.305 9.429,16.885 14.593,23.584l6.131 8.084c0.582,0.89 0.819,1.477 1.29,2.365 -1.555,-0.362 -3.611,-1.766 -5.045,-2.665l-0.691 -0.428c-0.062,-0.042 -0.155,-0.112 -0.218,-0.157 -0.066,-0.046 -0.158,-0.12 -0.226,-0.168 -1.701,-1.23 -2.834,-1.497 -3.638,-2.533 -2.311,-2.979 -4.235,-6.763 -6.538,-9.778 -4.066,-5.323 -4.543,-6.569 -9.535,-10.772 -3.145,-2.647 1.177,0.151 -4.489,-3.634 -0.905,-0.605 -1.532,-1.021 -2.436,-1.625 -3.435,-2.29 -6.219,-4.411 -9.966,-6.28 -4.49,-2.239 -9.922,-4.238 -14.731,-5.576 -6.358,-1.768 -18.198,-3.902 -24.527,-3.902 5.03,9.507 8.07,14.674 15.132,23.045l8.935 8.935c7.201,6.048 18.131,12.517 27.48,14.352 1.889,0.371 3.673,0.649 5.879,1.025 1.724,0.294 5.061,0.583 6.739,0.572 8.482,-0.057 14.411,2.93 21.138,6.886 5.159,3.033 8.233,7.563 11.791,11.359l30.839 30.487c-2.92,0 -5.822,-0.952 -8.522,-1.631 -1.452,-0.365 -1.972,-1.35 -2.95,-2.33l-9.346 -8.931c-0.601,-0.516 -0.96,-0.665 -1.687,-1.155l-9.034 -6.399c-2.348,-1.298 -4.734,-2.36 -7.041,-3.519 -6.593,-3.312 -17.566,-5.579 -25.605,-5.668 -3.016,-0.033 -6.877,-0.771 -10.108,-0.392 -4.699,0.552 -9.517,0.615 -14.42,1.421 -4.483,0.736 -2.083,1.293 0.476,4.341 6.207,7.391 10.073,10.627 17.812,16.303 0.879,0.645 0.605,0.623 1.643,1.2 1.363,0.757 1.835,0.976 3.069,1.805 1.183,0.795 2.033,1.273 3.248,2.031 6.8,4.246 14.789,7.331 23.157,8.522 7.966,1.134 12.033,-0.096 19.407,-0.318 8.734,-0.264 12.036,-3.743 26.643,2.193 4.249,1.726 7.756,4.338 11.454,6.815l7.792 5.618c7.207,5.061 14.671,9.955 22.611,13.941 1.471,0.738 2.103,1.093 3.793,1.487 -1.583,2.161 -9.366,0.428 -12.259,-1.143l-6.959 -4.008c-1.147,-0.61 -1.644,-0.704 -2.843,-1.218 -3.722,-1.595 -6.685,-2.962 -10.998,-4.029 -4.472,-1.105 -7.699,-1.836 -12.832,-2.195l-6.907 -0.403c-10.681,-0.004 -24.334,3.007 -34.466,6.959 -2.612,1.019 -5.082,2.973 -7.772,3.6 0.356,1.528 0.704,1.561 1.915,2.552 3.774,3.088 8.029,5.266 12.437,7.465 8.877,4.428 17.81,7.665 27.794,9.164 11.012,1.653 21.548,-0.182 31.717,-4.208 5.434,-2.151 10.956,-5.831 17.91,-6.457 4.371,-0.394 6.732,-0.636 11.223,0.176 3.442,0.621 6.354,1.787 9.374,3.217l34.652 14.896c-2,2.73 -10.426,0.642 -12.672,0.081 -3.985,-0.994 -8.131,-2.308 -12.101,-2.925 -11.009,-1.713 -22.735,-0.575 -32.369,3.374l-5.458 2.259c-8.7,3.44 -15.742,8.966 -23.018,14.73l-3.525 2.59c-0.06,0.052 -0.158,0.147 -0.21,0.196 -0.053,0.048 -0.164,0.16 -0.206,0.2 -0.042,0.039 -0.132,0.139 -0.198,0.208 1.393,2.08 5.043,2.585 7.392,3.168 3.043,0.755 5.984,1.416 8.952,2.014 11.301,2.278 27.469,2.364 38.543,-1.062 15.171,-4.694 23.425,-15.651 34.612,-19.404 1.862,-0.625 7.094,-1.656 9.512,-1.281 10.292,1.596 31.353,8.578 34.609,8.849l0 0.812c-2.051,0.171 -3.199,0.918 -5.177,1.322 -8.402,1.712 -13.698,-1.901 -26.737,3.317 -1.116,0.447 -1.627,0.52 -2.734,0.921 -3.292,1.193 -6.018,2.681 -8.896,4.507l-13.729 11.044c-0.549,0.679 -0.393,0.439 -0.978,1.054 -3.214,3.376 -10.82,12.238 -11.605,15.606 2.496,0 3.188,0.381 5.266,0.423l16.214 -1.28c1.455,-0.191 3.211,-0.529 4.827,-0.859 4.55,-0.93 8.828,-3.005 13.034,-4.837 1.293,-0.564 2.471,-1.08 3.849,-1.836 5.49,-3.013 10.413,-7.22 14.589,-11.811 6.271,-6.897 9.609,-15.769 23.857,-14.731 3.035,0.222 6.772,1.397 9.664,2.115l9.17 2.608c5.85,1.732 12.19,3.557 17.775,5.781 5.245,2.089 11.68,4.363 16.593,6.963 -0.758,1.034 -2.513,1.889 -3.818,2.68l-19.982 12.509c-2.663,1.771 -5.334,3.58 -7.58,5.823l-6.895 6.099c-3.79,3.846 -3.183,2.621 -8.324,8.33l-4.571 5.176c-1.861,2.54 -4.358,4.712 -6.096,7.307l7.067 5.93c1.024,0.78 1.613,1.222 2.681,1.787 2.192,-1.468 7.824,-10.415 10.258,-13.298l6.013 -6.577c5.003,-5.373 10.678,-10.69 16.623,-15.056l11.941 -8.366c1.581,-0.961 2.851,-1.564 4.388,-2.516 7.875,-4.877 7.172,-6.415 13.157,-2.758l4.36 2.544c5.645,2.965 13,8.256 18.031,12.429l3.842 3.062c2.99,2.351 6.342,5.291 8.904,8.154 0.59,0.659 0.713,1.004 1.473,1.776l8.305 9.159c0.598,0.755 0.794,1.04 1.438,1.811 0.539,0.646 1.05,1.362 1.574,2.082l5.848 7.96c0.901,-0.603 1.227,-1.027 2.268,-1.794 1.616,-1.193 6.247,-5.594 7.48,-5.923 -0.418,-0.623 -0.804,-1.293 -1.328,-1.921l-10.542 -12.607 -10.174 -9.322c-11.248,-9.331 -8.904,-7.683 -22.796,-17.005 -2.252,-1.51 -10.633,-6.557 -12.832,-7.069 3.524,-3.063 24.231,-9.776 29.495,-11.525 1.734,-0.576 3.074,-0.983 4.705,-1.387 5.817,-1.442 12.819,-3.964 18.675,-4.881 5.649,-0.884 10.029,0.708 14.278,3.032 3.779,2.068 5.331,6.607 8.281,9.589l12.373 11.183c10.157,6.781 23.743,11.139 36.064,11.048 2.47,-0.018 3.462,0.267 5.279,0.407 2.538,0.197 3.773,-0.366 5.688,-0.408 0.616,-2.908 -2.833,-5.906 -4.464,-8.126 -0.627,-0.854 -0.852,-0.939 -1.522,-1.728 -10.186,-12.001 -22.895,-22.273 -38.717,-25.453 -8.562,-1.72 -13.944,0.053 -24.747,-2.464l0 -0.812c4.955,-0.111 12.078,-3.277 16.891,-4.634 13.158,-3.711 21.2,-7.359 34.278,0.171 4.914,2.83 8.553,6.976 14.089,9.873 0.955,0.5 1.023,0.65 1.762,1.081 8.826,5.157 18.94,8.14 29.641,8.13l15.04 -0.8 13.709 -2.536c2.552,-0.562 5.593,-2.283 8.616,-2.35 -1.646,-3.11 -5.198,-4.953 -7.815,-7.212 -2.636,-2.276 -5.958,-4.271 -8.837,-6.191 -6.142,-4.098 -12.796,-7.204 -20.955,-9.505 -7.78,-2.194 -18.035,-3.549 -27.072,-1.97 -8.785,1.534 -16.407,5.467 -25.484,3.352 2.586,-2.247 13.521,-5.707 17.185,-7.183 10.855,-4.372 21.434,-11.775 30.724,-11.921 7.577,-0.119 13.469,1.525 19.773,4.627 1.548,0.761 3.159,1.304 4.669,1.829 6.362,2.217 12.248,4.672 19.447,4.921 3.251,0.113 4.375,0.473 8.142,0.041 4.716,-0.541 6.664,0.047 13.73,-2.11 8.322,-2.54 14.161,-5.531 21.613,-8.879l11.739 -6.911 0 -1.219c-1.649,-0.597 -3.043,-1.945 -4.591,-2.719 -10.819,-5.411 -32.471,-9.269 -44.185,-7.881 -7.521,0.892 -17.406,2.255 -24.005,6.05l-2.367 1.289c-6.616,3.768 -11.598,7.629 -19.888,5.698l2.042 -1.207c0.721,-0.408 1.305,-0.665 2.159,-1.09 1.559,-0.775 2.613,-1.515 4.087,-2.411l35.978 -23.318c20.272,-9.064 34.057,3.406 57.833,-4.713 1.136,-0.387 1.473,-0.602 2.33,-0.919l4.627 -1.871c0.821,-0.39 0.334,-0.215 1.076,-0.549l3.245 -1.628c5.118,-2.598 13.076,-8.474 17.701,-12.354l13.101 -13.704c-7.552,-0.628 -14.808,-2.442 -24.789,-2.045 -4.571,0.181 -13.014,1.442 -17.043,2.452l-9.094 2.683c-2.902,0.982 -5.3,2.482 -7.958,3.821 -3.397,1.71 -6.325,3.823 -9.276,6.158 -5.553,4.393 -6.111,4.969 -12.147,11.002 -2.363,2.362 -7.188,3.953 -11.886,3.953 1.072,-1.601 8.587,-7.57 10.865,-9.848 3.806,-3.807 8.957,-8.17 12.041,-12.327 0.597,-0.805 1.068,-1.209 1.762,-1.889l3.578 -3.738c3.14,-3.708 6.296,-7.539 10.036,-10.676 4.639,-3.892 7.75,-5.292 13.297,-7.822 1.19,-0.543 3.646,-1.392 5.115,-1.789 9.461,-2.559 25.486,1.268 42.973,-13.057l7.803 -6.43c0.083,-0.083 0.3,-0.345 0.38,-0.432l10.915 -12.641 6.083 -9.757c1.16,-1.725 2.895,-3.97 3.085,-6.255 -7.189,0 -14.124,1.315 -20.957,3.005 -9.977,2.468 -19.787,6.264 -27.846,12.361 -2.915,2.206 -6.41,4.285 -8.982,6.858 -0.89,0.89 -0.735,1.296 -1.804,2.257 -1.972,1.775 -4.137,4.258 -5.533,6.652 -0.599,1.027 -0.922,1.567 -1.54,2.476l-4.921 7.308c-1.6,1.903 -7.357,5.567 -10.05,6.195 4.54,-6.78 15.833,-22.284 19.225,-29.105l3.525 -6.628c0.499,-0.86 0.77,-1.215 1.345,-2.311l2.439 -4.465c0.763,-1.539 1.592,-2.971 2.536,-4.368l8.22 -8.839c4.278,-3.378 6.194,-4.707 11.504,-6.365 7.064,-2.206 13.767,-4.531 19.356,-8.262l3.973 -2.931c4.738,-3.182 9.049,-7.467 12.42,-11.948 0.574,-0.763 1.068,-1.386 1.563,-2.092 4.832,-6.888 9.643,-14.387 11.851,-22.671 0.875,-3.281 3.086,-7.217 3.171,-11.044 -7.263,1.692 -14.07,4.599 -20.576,7.854l-10.859 6.605c-0.919,0.675 -1.436,0.869 -2.272,1.383 -4.252,2.615 -10.741,10.581 -13.886,14.543 -1.17,1.473 -1.855,2.935 -2.774,4.537 -2.112,3.681 -3.29,5.077 -4.811,9.403 -1.329,3.78 -2.736,6.721 -3.712,10.91 -1.864,0.155 -1.008,0.013 -1.966,1.282l-5.751 4.81c0.723,-3.103 2.678,-5.919 3.715,-8.876 0.555,-1.586 1.001,-3.107 1.692,-4.807l3.402 -9.188c1.251,-3.08 1.897,-6.721 3.135,-9.861 2.536,-6.432 4.221,-19.418 8.069,-24.016 4.81,-5.746 5.083,-9.029 11.901,-13.685 2.688,-1.836 5.554,-2.482 7.987,-4.604l10.353 -8.736c0.629,-0.636 1.036,-0.975 1.64,-1.608l2.856 -3.643c0.553,-0.84 0.8,-1.131 1.367,-1.882 0.88,-1.165 1.813,-2.577 2.611,-3.887 3.374,-5.541 5.7,-11.901 7.397,-18.19l3.731 -21.855c-4.476,0.372 -14.296,8.156 -18.679,11.375l-4.92 4.015c-2.694,2.425 -4.96,5.4 -7.196,8.238 -0.378,0.48 -0.574,0.594 -0.956,1.074l-8.102 14.641 -2.693 9.085c-1.061,5.341 -1.528,10.521 -3.465,15.218l-4.35 7.428c0,-2.12 4.324,-25.029 4.483,-35.724 0.031,-2.027 -0.061,-4.098 -0.031,-6.124l0.58 -10.792c0.865,-5.004 2.408,-8.721 4.439,-13.025l4.385 -6.963 8.709 -8.372c0.06,-0.059 0.151,-0.138 0.212,-0.195 1.991,-1.875 3.541,-4.35 5.346,-6.432 1.306,-1.508 3.604,-5.217 4.313,-7.058 2.765,-7.178 4.347,-9.091 5.696,-17.454 0.851,-5.268 1.279,-10.823 1.274,-16.211 -0.002,-2.311 -0.42,-2.79 -0.411,-5.275 0.015,-4.145 -1.407,-6.282 -0.412,-10.554 -2.991,0.697 -8.808,6.43 -11.215,9.498 -3.038,3.874 -6.387,7.465 -9.011,11.702l-7.144 13.975c-2.082,6.156 -4.52,17.351 -3.334,23.958 0.24,1.337 0.149,1.62 0.246,3.004 0.236,3.376 0.68,5.543 -0.556,9.195 -0.671,1.981 -1.448,3.561 -1.883,5.428l-0.843 -7.28c-0.418,-3.708 -0.291,-9.243 -0.869,-12.939l-1.131 -9.835c-0.809,-9.935 -4.91,-18.601 -3.695,-28.876 1.589,-13.447 7.148,-16.093 12.093,-26.489 6.747,-14.184 6.328,-27.795 3.351,-42.891 -0.849,-4.303 -3.394,-13.577 -5.251,-17.088 -1.797,1.204 -3.176,3.595 -4.195,5.553 -1.821,3.497 -4.199,6.766 -5.958,10.287 -6.312,12.632 -9.475,29.321 -5.611,43.788 1.073,4.017 4.573,11.238 3.764,15.276 -0.443,2.206 -1.253,3.713 -1.402,5.512l-0.813 0c-0.528,-6.352 -8.657,-28.94 -11.368,-34.932 -2.519,-5.565 -4.791,-10.295 -6.787,-16.256 -5.387,-16.083 5.617,-28.204 5.567,-43.847 -0.017,-5.384 -1.075,-10.336 -2.275,-15.192 -1.502,-6.069 -3.643,-11.067 -6.457,-16.693 -2.935,-5.868 -3.553,-6.339 -6.291,-10.767 -0.823,-1.332 -1.22,-2.808 -2.849,-3.243 -0.056,2.525 -4.803,14.366 -5.593,19.588 -1.697,11.233 -1.976,22.498 1.989,33.159 2.149,5.776 5.282,11.42 8.56,16.62 1.726,2.738 1.948,6.333 1.948,10.642 -1.175,-0.861 -5.655,-9.205 -6.992,-11.284l-2.216 -3.876c-2.829,-5.388 -6.282,-9.913 -9.815,-14.553l-7.894 -10.383c-0.978,-1.282 -1.566,-2.223 -2.487,-3.604 -4.679,-7.018 -6.481,-16.092 -5.207,-24.62 0.241,-1.609 0.505,-4.102 0.506,-5.586 0.008,-8.285 -0.37,-16.286 -3.665,-23.568l-5.447 -9.987c-3.26,-4.908 -6.626,-9.379 -10.707,-13.66l-9.433 -8.843c0,5.901 -1.229,12.02 -1.224,17.866 0.006,7.493 1.322,15.128 4.008,21.994l4.038 8.959c0.523,0.919 0.532,1.171 1.13,2.119 3.707,5.884 8.364,8.952 12.184,13.809 1.676,2.13 3.099,3.044 3.74,6.007 0.37,1.71 0.697,3.928 1.304,5.194 -1.081,-0.392 -1.819,-1.618 -2.745,-2.535 -2.732,-2.701 -4.837,-5.939 -7.977,-8.268l-22.882 -20.981c-3.191,-2.676 -4.726,-6.32 -6.038,-10.208 -1.312,-3.886 -7.166,-13.985 -10.41,-17.207 -0.98,-0.973 -1.652,-1.665 -2.638,-2.642l-5.249 -3.955c-0.084,-0.059 -0.962,-0.718 -0.969,-0.723l-3.637 -2.118c-1.191,-0.616 -2.056,-1.163 -3.387,-1.893 -1.618,-0.887 -1.726,-1.232 -3.767,-1.919 -1.533,-0.516 -2.509,-0.971 -3.863,-1.418 -1.539,-0.508 -2.646,-0.879 -4.263,-1.423 -4.913,-1.653 -12.379,-4.313 -17.617,-4.313 0.052,2.333 2.032,5.684 2.98,7.579 2.354,4.708 5.052,8.848 8.254,12.972l1.08 1.282c4.324,5.19 5.261,6.928 10.993,11.719l0.874 0.75c4.201,3.596 12.304,7.974 17.403,9.402 8.063,2.258 15.703,3.777 21.666,10.021 0.422,0.441 0.705,0.78 1.331,1.236l3 2.548c5.282,3.921 13.221,12.468 17.816,17.112l4.766 6.2 -4.547 -1.396c-1.874,-1.113 -8.125,-7.434 -10.405,-9.239l-7.652 -4.938c-5.635,-3.142 -13.369,-5.191 -19.665,-5.922 -9.286,-1.079 -17.827,1.672 -26.141,4.259l-0.68 0.175c-0.138,0.032 -0.553,0.084 -0.689,0.112 -1.638,0.349 -3.109,1.162 -4.545,1.922 1.862,2.541 14.143,10.192 16.925,11.505 8.772,4.141 11.297,5.165 21.491,6.939l15.92 0.151c4.52,-0.671 11.499,-1.85 15.853,-0.651 2.761,0.76 5.437,2.064 7.929,3.442 5.6,3.096 5.243,3.742 8.926,8.164l4.821 6.518c2.487,3.752 4.963,6.539 8.365,11.943l3.335 5.193c1.875,3.649 7.849,11.727 8.123,15.027 -3.728,-2.496 -3.915,-1.614 -7.073,-6.329l-8.505 -11.289 -3.837 -3.174c-1.1,-0.726 -1.503,-1.169 -2.589,-1.879 -5.88,-3.845 -12.027,-6.643 -19.42,-7.791 -4.839,-0.751 -11.167,-1.25 -17.062,-0.813 -2.328,0.173 -5.473,0.944 -7.757,1.179 -3.086,0.316 -3.691,0.558 -1.616,2.647l13.624 13.047c0.063,0.055 0.155,0.133 0.219,0.187 0.064,0.055 0.155,0.133 0.219,0.187 9.217,7.868 20.605,12.5 33.071,13.636 1.077,0.098 2.594,0.331 3.907,0.56 3.911,0.681 7.731,0.055 11.673,1.729 2.229,0.947 3.637,2.126 5.441,3.494 2.734,2.075 4.658,4.424 6.444,7.365 0.651,1.072 1.099,1.75 1.661,2.807 2.616,4.924 6.063,14.104 7.789,19.016l4.778 13.092c0.787,2.362 1.416,4.613 2.137,6.798 0.575,1.744 1.509,5.722 1.671,7.67l-0.682 -0.943c-3.883,-6.221 -4.889,-5.797 -8.097,-13.834 -3.983,-9.983 -11.1,-18.382 -20.541,-23.728 -1.402,-0.793 -3.11,-1.493 -4.653,-2.252 -7.064,-3.476 -19.789,-6.097 -27.76,-6.761 0.141,1.703 0.944,2.764 1.705,3.981 0.769,1.231 1.419,2.251 2.09,3.596 4.237,8.495 8.987,14.679 15.791,21.167 2.951,2.813 6.528,4.977 10.056,7.002 0.611,0.351 1.053,0.706 1.705,1.138 1.927,1.275 5.414,2.634 7.892,3.48 9.344,3.189 16.217,4.091 22.096,12.564 1.52,2.191 2.557,5.007 3.241,7.587 0.779,2.94 1.534,6.094 2.03,9.341 0.957,6.267 2.502,13.131 3.219,19.525 0.393,3.5 0.261,7.462 0.755,10.617 0.287,1.833 -0.054,3.747 0.085,5.601l0.409 5.683c-1.077,-0.789 -1.878,-2.661 -2.576,-3.922 -1.37,-2.471 -1.109,-2.065 -1.653,-5.252 -0.358,-2.096 -0.362,-4.204 -0.685,-6.219 -0.253,-1.575 -0.799,-3.951 -1.251,-5.653 -1.019,-3.833 -3.119,-8.075 -5.21,-11.442 -2.592,-4.17 -7.449,-9.227 -11.261,-12.701 -2.38,-2.169 -5.525,-3.881 -8.369,-5.44 -1.005,-0.551 -0.96,-0.666 -2.023,-1.226 -0.892,-0.47 -1.264,-0.627 -2.169,-1.08 -4.893,-2.446 -9.159,-4.651 -14.758,-5.955 0,6.497 5.457,19.444 8.389,25.321 0.717,1.438 1.241,2.195 2.032,3.654 1.59,2.932 4.272,6.412 6.45,8.983 0.357,0.422 0.017,0.015 0.372,0.44 3.614,4.324 8.367,7.412 13.13,10.425 3.675,2.325 11.164,6.384 13.253,9.492l4.29 7.082c1.904,3.605 2.13,15.574 1.314,20.792 -0.516,3.296 -0.127,7.462 -0.523,10.848 -0.377,3.215 -0.817,6.929 -1.202,10.171 -0.661,5.575 -2.045,11.174 -3.122,16.778 -0.396,2.058 0.413,0.936 -0.926,1.917 -0.414,-1.777 -1.093,-3.063 -1.479,-5.02l0.245 -12.459c0.081,-2.046 0.708,-3.758 0.392,-6.453 -1.06,-9.039 -4.656,-18.972 -10.629,-25.925l-4.641 -5.78c-0.048,-0.065 -0.11,-0.168 -0.161,-0.233 -0.054,-0.069 -0.127,-0.165 -0.185,-0.233l-6.617 -5.705c-1.384,-1.089 -2.545,-1.862 -3.83,-3.075 -1.809,-1.708 -5.608,-4.816 -8.023,-5.379 0,16.33 0.145,24.289 6.906,39.393 0.323,0.72 0.459,1.323 0.82,2.023 0.44,0.852 0.023,-0.041 0.462,0.756l5.148 7.849c2.539,3.4 5.623,6.257 8.437,9.434l0.59 0.628c7.053,6.568 10.551,11.616 10.145,23.599 -0.157,4.614 -9.756,32.027 -11.037,35.262l-5.094 12.37c-0.581,1.093 -1.756,3.065 -1.756,4.336l-0.406 0c0,-1.78 -0.335,-1.829 -0.379,-2.875 -0.143,-3.369 1.845,-10.461 2.873,-13.719 2.179,-6.905 3.061,-16.118 1.537,-23.583l-6.304 -17.252c-3.713,-6.008 -4.722,-8.315 -9.58,-13.977 -0.054,-0.064 -0.124,-0.163 -0.178,-0.227l-0.959 -1.072c-0.062,-0.057 -0.156,-0.132 -0.219,-0.188 -0.063,-0.055 -0.155,-0.132 -0.219,-0.187 -1.945,-1.648 -3.371,-3.687 -5.661,-4.898 -2.542,5.298 -2.654,14.537 -3.568,20.394 -1.588,10.185 1.933,26.013 6.742,34.916 0.749,1.385 1.439,2.47 2.239,3.853 6.28,10.863 9.929,10.687 8.809,26.945 -0.399,5.793 -8.76,18.179 -12.178,23.968l-14.555 21.186c-0.93,1.412 -4.301,6.05 -5.359,6.825 0.638,-2.739 1.056,-6.98 2.513,-9.266 3.935,-6.174 7.469,-12.751 9.729,-19.918 4.214,-13.364 1.434,-29.675 -4.255,-40.942l-5.967 -11.497c-0.464,-0.801 -0.864,-1.492 -1.614,-2.042 -2.555,0.683 -4.11,7.466 -5.147,9.88 -2.295,5.34 -4.208,11.124 -5.385,16.953 -0.364,1.803 -0.57,3.311 -0.885,5.207 -1.523,9.189 -0.079,19.164 1.832,27.906 0.847,3.875 1.977,6.347 3.036,9.555 1.084,3.281 2.322,5.922 1.59,10.829 -0.22,1.471 -0.68,3.67 -1.08,5.014l-0.435 1.551c-0.033,0.112 -0.058,0.222 -0.093,0.333 -1.564,4.893 -4.59,8.733 -7.798,12.533l-13.183 14.028c-0.396,0.458 -0.436,0.436 -0.843,0.781l-0.665 0.553c-0.064,0.054 -0.153,0.135 -0.218,0.188 -0.711,0.594 -1.005,0.85 -1.697,1.557 -0.552,0.565 -0.84,0.909 -1.439,1.376l-15.265 13.188c-0.661,0.491 -1.38,0.842 -1.947,1.302 -1.145,0.928 -0.388,0.873 -1.957,1.292 0.986,-1.865 0.901,-3.387 2.099,-5.211 1.409,-2.147 3.36,-4.176 5.286,-5.68l5.36 -5.628c5.236,-6.303 8.892,-13.786 11.28,-21.594 3.356,-10.974 2.2,-24.997 -0.226,-36.048 -0.665,-3.029 -2.899,-9.287 -3.086,-11.534 -1.438,0.384 -2.571,1.791 -3.552,2.946l-8.36 11.541c-0.867,1.508 -1.504,2.598 -2.468,4.03 -0.968,1.436 -1.534,2.75 -2.272,4.226 -8.274,16.554 -7.976,25.486 -7.324,44.689 0.06,1.78 0.308,1.271 0.422,2.827l0.048 5.707c-0.435,4.506 -1.843,7.71 -3.889,11.532l-0.275 0.558c-1.6,2.882 -3.586,5.645 -6.367,7.466l-28.235 17.657c-7.164,4.169 -14.897,7.232 -22.205,11.099 0.38,-1.423 3.187,-4.484 4.36,-5.793 2.245,-2.508 3.569,-2.572 6.281,-4.279 3.208,-2.019 6.737,-3.678 9.441,-6.398 4.791,-4.818 9.671,-9.925 12.815,-16.021 2.844,-5.515 5.253,-11.125 6.667,-17.295 0.363,-1.583 0.558,-2.801 0.882,-4.398 1.115,-5.507 1.403,-14.063 1.396,-19.744 -0.001,-1.214 -0.745,-9.02 -1.119,-9.404 -0.659,-0.675 -2.475,0.901 -3.197,1.453l-4.409 3.715c-4.42,3.729 -11.295,10.345 -14.368,14.467 -0.817,1.096 -1.406,1.856 -2.266,3.014l-6.174 9.666 -4.503 11.336c-2.29,5.763 -2.49,11.247 -3.613,17.506 -0.8,4.458 0.314,8.602 -2.322,13.517 -2.654,4.95 -6.3,9.458 -10.725,12.831 -4.599,3.507 -21.81,9.086 -28.49,11.312l-16.216 4.903c-2.394,0.593 -5.839,1.719 -8.61,1.95 0.069,-0.066 0.175,-0.268 0.205,-0.201 0.03,0.066 0.161,-0.163 0.202,-0.204l3.352 -3.553c1.266,-1.389 3.435,-1.933 5.313,-2.81 6.721,-3.139 12.022,-4.589 17.641,-9.976 2.666,-2.557 5.528,-5.085 7.914,-7.926l3.622 -4.094c8.513,-10.694 14.143,-32.62 14.143,-45.56 -5.11,1.191 -18.978,10.186 -22.64,13.507 -0.809,0.734 -1.173,0.85 -2.042,1.613l-5.588 5.378c-0.173,0.195 -0.491,0.491 -0.804,0.82l-5.647 6.944c-0.61,0.903 -0.965,1.337 -1.533,2.122 -2.331,3.229 -4.766,8.194 -6.298,11.978 -3.422,8.453 -4.251,19.968 -9.9,26.653 -0.054,0.064 -0.136,0.152 -0.19,0.216 -0.527,0.621 0.152,-0.183 -0.373,0.439 -2.014,2.389 -4.453,4.26 -7.312,5.684 -3.583,1.783 -6.888,2.905 -10.7,3.921 -1.846,0.493 -3.403,1.216 -5.595,1.716 -2.227,0.508 -4.077,0.905 -5.939,1.371 -13.214,3.312 -25.439,7.739 -37.969,12.799l-5.125 2.185c-7.021,3.402 -2.276,2.798 -14.9,-2.309l-21.373 -7.87c-3.82,-1.273 -7.46,-2.316 -11.17,-3.451 -10.814,-3.306 -23.308,-4.164 -32.183,-11.679l-1.763 -1.486c-2.399,-2.545 -4.289,-5.089 -5.644,-8.571 -3.989,-10.257 -3.012,-19.86 -13.629,-33.889l-14.384 -14.452c-10.822,-7.986 -7.951,-6.17 -19.933,-12.969 -3.768,-2.137 -1.926,0.396 -1.762,5.828 0.163,5.414 4.007,20.351 6.209,25.876 4.049,10.154 12.654,20.787 21.238,27.092 0.876,0.644 1.457,1.121 2.305,1.756 0.689,0.516 0.49,0.339 1.239,0.8 0.601,0.37 0.848,0.566 1.334,0.839l15.842 7.97c0.567,0.423 3.976,3.559 4.224,3.899 -5.921,-1.38 -11.24,-2.751 -16.703,-4.416l-15.838 -5.281c-5.203,-1.718 -18.355,-5.801 -22.195,-9.484 -7.153,-6.86 -12.189,-13.936 -12.291,-24.668 -0.059,-6.243 -1.557,-12.015 -3.309,-17.809 -1.89,-6.251 -4.873,-12.548 -8.454,-17.945 -4.208,-6.341 -9.19,-11.768 -14.519,-17.16 -1.567,-1.585 -10.332,-9.34 -11.633,-9.524 -1.699,-0.241 -0.904,2.235 -1.09,3.91 -1.205,10.855 -0.507,22.941 2.616,33.59 1.245,4.245 4.201,12.827 7.048,16.508 0.508,0.656 0.675,0.956 1.164,1.679 2.199,3.253 4.666,5.752 7.381,8.459l11.888 9.231c4.12,2.4 8.693,5.777 11.359,9.76 -3.92,-0.326 -9.905,-4.148 -13.539,-5.955 -1.714,-0.852 -2.565,-1.526 -4.185,-2.314l-4.343 -2.155c-1.511,-0.751 -3.005,-1.402 -4.325,-2.173 -1.284,-0.75 -2.832,-1.638 -4.042,-2.349l-0.752 -0.436c-8.09,-4.441 -16.138,-9.46 -22.73,-15.991 -11.17,-11.068 -6.25,-23.543 -6.19,-37.266 0.047,-10.824 -2.774,-22.284 -7.581,-31.815l-4.873 -8.529c-2.965,-5.413 -6.64,-8.828 -8.256,-11.239 -0.955,-1.424 -1.462,-3.061 -3.66,-3.244 -1.465,3.053 -2.395,7.546 -3.331,11.291 -0.449,1.796 -1.008,3.754 -1.386,5.923 -1.192,6.834 -1.891,13.654 -0.731,20.318 1.065,6.107 2.031,12.101 4.46,17.878 2.032,4.833 5.146,9.085 8.484,13.042l3.655 4.061c0.054,0.064 0.134,0.153 0.188,0.218 2.095,2.498 5.585,4.648 6.947,7.674l2.427 5.29c-2.003,-0.535 -3.988,-2.443 -5.574,-3.767 -0.772,-0.644 -1.057,-0.841 -1.812,-1.438l-8.14 -7.293c-0.86,-0.82 -1.004,-0.72 -1.833,-1.416 -1.309,-1.098 -1.942,-2.116 -3.354,-3.144 -4.649,-3.38 -12.477,-12.577 -16.945,-17.577l-5.406 -7.184c-9.076,-15.32 -2.136,-21.037 0.503,-31.608 5.854,-23.445 1.86,-35.848 -6.524,-57.408 -0.641,-1.649 -1.679,-2.651 -2.089,-4.409l-0.812 0c-0.73,2.732 -3.545,6.273 -4.874,8.935 -1.559,3.124 -3.098,6.009 -4.469,9.339 -4.381,10.646 -5.754,24.485 -2.766,35.667 5.365,20.077 12.109,18.908 12.109,30.13 -2.324,-1.703 -8.662,-11.154 -10.319,-13.644l-15.915 -25.917c-2.608,-4.269 -4.246,-7.268 -5.212,-12.658 -1.261,-7.038 0.524,-13.839 3.986,-19.492 5.157,-8.423 9.351,-13.258 11.783,-24.381 0.699,-3.197 1.477,-6.663 1.838,-9.941 0.1,-0.907 -0.041,-1.878 0.061,-2.782 1.138,-10.108 -2.47,-19.54 -3.28,-29.272l-3.431 2.661c-2.79,2.793 -5.65,5.864 -7.936,9.122 -10.099,14.399 -16.1,31.733 -10.821,49.394 1.112,3.722 2.064,6.769 2.694,10.709 0.529,3.312 0,2.902 0,6.092l-0.407 0c0,-2.987 -3.676,-8.966 -5.006,-12.052 -2.486,-5.769 -6.035,-15.749 -7.584,-21.657 -0.792,-3.02 -1.983,-5.46 -2.681,-8.691 -0.394,-1.824 -0.532,-3.064 -1.023,-4.663 -0.462,-1.504 -0.843,-3.132 -1.204,-4.889 -1.37,-6.679 2.221,-15.68 6.033,-19.622 2.287,-2.364 4.308,-5.201 6.929,-7.286 1.002,-0.797 0.514,-0.188 1.516,-1.326l1.498 -1.752c5.904,-6.248 10.133,-13.946 12.842,-22.085 1.577,-4.737 2.249,-9.556 2.984,-14.48l0.728 -11.06c0.009,-2.523 -0.411,-3.142 -0.411,-5.681 -2.818,0.753 -10.658,7.229 -13.297,9.446 -0.711,0.597 -1.141,1.189 -1.822,1.833 -0.785,0.742 -1.151,0.777 -1.772,1.478l-8.771 11.13c-3.151,4.816 -6.116,10.187 -7.142,16.008 -2.091,11.855 0.236,16.403 -0.993,25 -0.284,1.991 -1.131,3.489 -1.131,5.773l-4.224 -24.611c-0.832,-4.753 -1.963,-21.262 -1.884,-26.578 0.135,-8.935 4.139,-17.763 12.2,-21.916 5.418,-2.79 10.567,-6.472 15.213,-10.373l9.565 -10.336 4.471 -6.902c2.222,-4.387 8.831,-21.226 8.928,-25.593 -4.869,0.109 -10.446,3.306 -14.554,5.346 -5.558,2.761 -11.681,6.282 -16.223,10.582l-3.241 3.664c-2.294,2.266 -3.86,5.106 -5.54,7.863l-2.272 4.226c-0.785,1.755 -1.427,2.68 -2.091,4.813 -1.043,3.355 -1.514,7.201 -2.21,11.193 -0.584,3.352 -1.835,8.527 -3.824,9.985 0,-1.71 -0.081,-3.612 -0.015,-5.295l2.134 -25.89c0.428,-3.008 1.135,-6.391 1.775,-9.597 1.123,-5.631 2.288,-12.066 5.742,-16.596 0.952,-1.249 1.752,-2.034 2.548,-3.137 0.852,-1.18 1.982,-1.734 2.955,-2.687 3.587,-3.514 11.269,-4.451 16.011,-6.371l11.332 -5.725c3.488,-2.115 6.945,-4.353 9.81,-7.249 5.578,-5.637 8.138,-8.89 12.367,-15.657l2.918 -5.61c0.854,-2.029 2.149,-3.54 2.685,-5.844 -3.983,0 -8.175,0.992 -11.823,1.58 -7.423,1.198 -13.391,3.665 -19.862,6.943 -2.779,1.408 -5.306,3.634 -7.88,5.522 -2.178,1.599 -4.014,3.585 -5.736,5.636 -3.476,4.139 -6.003,8.66 -8.12,13.766 -0.039,0.092 -0.078,0.199 -0.116,0.293 -0.04,0.097 -0.083,0.205 -0.123,0.303 -0.041,0.1 -0.077,0.211 -0.119,0.31l-4.297 8.293c-1.059,1.588 -1.634,2.572 -3.251,3.654 0.048,-2.132 1.143,-5.261 1.778,-7.158l9.188 -26.551c1.636,-4.043 3.481,-8.4 5.774,-12.097 2.574,-4.149 1.676,-5.957 7.798,-10.477 1.783,-1.317 3.565,-2.643 5.558,-3.382 7.209,-2.675 24.187,-0.889 37.058,-8.02l11.12 -7.156c9.131,-6.927 9.252,-8.929 13.818,-13.393 0.455,-0.443 1.978,-1.783 1.956,-2.437 -0.05,-1.508 -13.424,-1.942 -15.349,-2.252 -1.902,-0.306 -10.205,0.818 -12.457,1.176 -4.325,0.688 -10.011,2.712 -13.444,4.427l-11.034 7.242c-2.488,1.99 -4.278,4.657 -6.192,7.211 -0.447,0.596 -0.496,0.553 -0.886,1.144 -0.427,0.647 -0.479,0.945 -0.901,1.536 -3.102,4.344 -4.463,6.24 -9.416,8.86 0.471,-2.023 1.836,-3.943 2.849,-5.679l4.67 -7.921c0.394,-0.755 0.079,-0.353 0.54,-1.084 0.215,-0.341 0.911,-1.228 1.215,-1.628l8.352 -11.955c0.884,-1.339 1.506,-2.041 2.357,-3.329l2.844 -4.029c0.179,-0.304 0.462,-0.737 0.645,-1.015 2.622,-3.985 5.674,-7.556 9.743,-10.154 3.981,-2.54 8.8,-3.982 13.494,-3.979 4.401,0.002 8.6,0.907 12.991,1.227 7.976,0.581 15.075,0.037 22.991,-2.195 7.202,-2.03 13.373,-5.258 19.493,-9.342 2.363,-1.577 9.228,-5.001 9.91,-7.554 -1.477,-0.344 -2.687,-1.147 -4.409,-1.683 -12.117,-3.768 -26.748,-6.718 -38.401,-2.138 -7.516,2.954 -14.431,6.026 -20.242,11.843 -3.906,3.91 -6.004,6.905 -12.084,7.411 0.773,-1.154 1.588,-1.676 2.437,-2.843 0.806,-1.107 1.519,-1.723 2.538,-2.742 4.453,-4.451 8.799,-9.172 13.603,-13.202 2.844,-2.386 10.396,-10.212 14.391,-12.82 6.844,-4.468 19.482,-4.975 30.634,-12.417 1.256,-0.839 1.893,-1.41 3.084,-2.196l4.202 -3.514c2.486,-2.085 4.502,-4.8 6.578,-7.231 0.811,-0.951 1.465,-2.003 2.248,-3.032l11.666 -20.824c-6.681,0 -19.163,4.449 -25.529,6.961 -8.503,3.356 -19.544,11.047 -23.22,17.394 -1.645,2.84 -3.777,5.591 -5.276,8.533 -2.348,4.609 -3.413,10.593 -7.632,13.893 -2.997,2.343 -5.568,5.433 -8.604,7.641l-5.784 5.182c-1.152,1.167 -2.086,1.482 -3.047,2.64 -0.728,0.878 -0.255,0.573 -1.089,1.347l-1.452 1.391c-0.055,0.063 -0.125,0.162 -0.181,0.225l-8.044 8.202c-1.525,1.516 -3.766,4.842 -5.178,5.788z"/>
  <path class="fil0" d="M332.627 568.187c-6.697,0 -11.176,-0.89 -15.136,-5.576 -2.492,-2.949 -2.335,-2.626 -3.546,-7.826 7.043,-0.586 9.262,-0.123 16.966,-1.717l11.006 -3.208c1.17,-0.439 2.07,-0.824 3.557,-1.317l7.939 -3.433c3.345,-1.822 4.146,-1.505 8.216,0.98 2.462,1.504 6.94,4.132 8.363,6.258l-16.789 9.61c-5.12,2.562 -13.229,6.229 -20.576,6.229zm-16.245 -18.276l-1.625 0c0.123,-5.489 7.406,-9.477 11.824,-10.92 6.78,-2.213 13.247,-1.174 19.774,0.442 3.405,0.843 2.824,0.298 3.736,1.543l-15.485 5.634c-1.442,0.484 -2.701,0.842 -4.096,1.188l-14.128 2.113zm86.914 -10.153c1.465,-0.122 4.779,-1.703 7.065,-2.276 8.916,-2.232 19.652,-1.053 24.207,7.556 -6.737,0 -11.059,0.062 -16.825,-1.045l-14.447 -4.235zm-30.055 10.559c-3.289,-2.859 -5.442,-4.214 -9.328,-6.511 -3.006,-1.776 -2.456,-0.926 -2.856,-2.424 1.873,-0.436 2.614,-1.316 4.328,-2.17 16.27,-8.116 9.644,-8.279 19.497,-3.378l7.042 3.924c-2.709,0.631 -9.116,4.627 -11.854,6.422 -0.853,0.56 -1.431,0.812 -2.286,1.37l-4.543 2.767zm64.983 -5.686c-1.091,0 -1.566,-3.714 -5.574,-7.016 -1.044,-0.861 -1.47,-1.194 -2.547,-1.92 -7.791,-5.255 -20.221,-3.957 -28.838,-0.405 -7.234,2.982 -6.443,1.541 -16.244,-2.845l-3.657 -1.622c0.786,-1.072 4.376,-2.7 5.768,-3.574 6.212,-3.901 18.926,-10.026 25.555,-12.215 13.714,-4.528 26.137,-7.809 39.615,-1.133 3.499,1.732 5.35,3.436 6.987,6.554 2.342,4.46 1.445,10.389 -1.398,14.602 -1.262,1.869 -3.13,3.505 -5.177,4.57 -3.979,2.071 -9.664,5.004 -14.49,5.004zm-101.535 -9.747c-9.933,0 -19.462,1.954 -24.245,11.495 -0.626,1.249 -0.789,2.38 -1.342,3.532 -3.07,0 -9.49,-1.591 -12.723,-3.116 -0.949,-0.448 -0.791,-0.511 -1.765,-1.078 -0.766,-0.445 -1.166,-0.658 -1.764,-1.079l-2.876 -2.404c-5.972,-6.109 -7.326,-15.229 -1.894,-21.467 3.481,-3.998 5.235,-5.351 10.33,-7.54 15.275,-6.563 32.856,-1.827 47.19,3.841 4.422,1.749 9.1,4.401 13.795,6.512l9.169 4.64c1.17,0.687 0.753,0.262 1.053,1.384l-7.857 3.922c-1.513,0.755 -2.102,1.267 -3.651,2.034 -1.515,0.751 -2.547,1.303 -4.056,2.038 -1.971,0.959 -2.015,1.008 -4.081,0.288 -1.762,-0.614 -2.822,-1.041 -4.692,-1.409 -3.415,-0.674 -6.341,-1.593 -10.591,-1.593zm38.583 -8.123c-0.879,0 -2.377,-0.93 -3.387,-1.486 -1.224,-0.674 -1.859,-1.143 -3.111,-1.763 -7.462,-3.696 -14.942,-7.581 -22.792,-10.511 -1.257,-0.469 -2.527,-0.805 -3.665,-1.209l-7.414 -2.333c-11.822,-2.955 -30.186,-3.538 -40.377,3.162l-3.942 2.964c-8.541,8.132 -9.658,19.8 -1.609,28.836l1.709 1.54c0.681,0.601 0.966,1.039 1.66,1.589 2.492,1.972 4.843,3.281 8.141,4.45 2.29,0.812 7.576,2.379 10.617,2.379 0,11.887 11.591,18.276 22.338,18.276 8.631,0 15.101,-2.748 22.505,-5.924 1.973,-0.846 17.665,-10.322 18.515,-10.322 0.866,0.883 6.569,7.512 9.267,14.455 2.054,5.285 2.671,13.612 -0.059,19.781 -1.095,2.475 -3.334,4.806 -5.307,6.142 -5.224,3.538 -13.072,2.523 -16.452,-3.014 -3.127,-5.123 -0.217,-9.834 -0.036,-11.641 -3.533,3.715 -4.99,11.91 0.294,16.624 4.786,4.27 12.37,4.976 18.256,2.2l2.949 -1.924c4.54,-4.283 6.521,-8.38 6.521,-18.254 0,-8.331 -3.421,-14.858 -7.786,-20.644 -1.464,-1.94 -3.187,-3.886 -4.547,-5.884 0.676,-0.816 1.902,-1.252 4.686,-3.048 1.101,-0.71 1.428,-0.564 2.626,-1.393 1.065,-0.737 1.51,-1.165 2.718,-1.795 16.004,-8.355 7.86,-6.198 25.127,-1.838 6.78,1.712 15.251,2.111 22.663,2.111 0,5.118 -0.031,8.091 -4.131,11.301 -2.456,1.923 -4.741,2.882 -8.048,3.731 -11.269,2.892 -24.623,-2.881 -30.465,-6.503 6.782,7.78 17.254,10.437 26.807,9.749 9.298,-0.668 17.37,-4.142 19.201,-13.31 0.399,-1.997 -0.114,-2.719 -0.114,-4.968 2.404,-1.154 6.232,-1.276 9.063,-2.309 5.558,-2.03 10.644,-4.709 13.927,-9.629 3.817,-5.722 4.028,-14.39 -0.183,-19.81 -15.349,-19.762 -47.567,-9.679 -66.264,-0.337 -1.085,0.542 -2.178,1.071 -3.256,1.618 -1.266,0.644 -1.937,1.187 -3.378,1.901l-6.794 3.79c-0.107,0.064 -0.425,0.241 -0.534,0.299l-2.297 1.314c-1.205,0.717 -2.078,1.637 -3.642,1.637z"/>
  <path class="fil1" d="M374.46 136.378c-23.352,0 -42.282,-18.93 -42.282,-42.281 0,-23.352 18.93,-42.282 42.282,-42.282 23.351,0 42.281,18.93 42.281,42.282 0,23.351 -18.93,42.281 -42.281,42.281zm0 5.969c26.648,0 48.25,-21.602 48.25,-48.25 0,-26.648 -21.602,-48.25 -48.25,-48.25 -26.648,0 -48.251,21.602 -48.251,48.25 0,26.648 21.603,48.25 48.251,48.25z"/>
  <path class="fil2 str0" d="M332.182 94.691c26.994,-0.206 30.72,-0.464 40.247,-0.467 -0.952,1.204 -6.632,6.129 -8.91,7.662 -1.105,-0.048 -2.955,-0.499 -8.457,-1.667 -2.763,-0.586 -6.016,-1.376 -8.995,-1.97 -2.751,-0.549 -8.984,-1.6 -13.856,-2.459 -2.435,-0.43 -4.531,-0.812 -5.68,-1.06 1.99,-0.013 3.871,-0.026 5.651,-0.039zm42.28 41.687c0.008,-12.797 0.033,-35.108 0.071,-40.935 1.302,0.471 7.883,8.388 7.883,8.528 -1.273,7.858 -4.292,22.011 -6.53,32.384 -0.474,2.199 -0.914,4.228 -1.294,5.992 -0.045,0.208 -0.089,0.413 -0.132,0.614 0,-0.195 0,-0.4 0,-0.614 0,-1.553 0.001,-3.598 0.002,-5.969zm-0.741 -44.997c-4.607,-3.836 -5.001,-4.216 -8.936,-7.984 0.438,-1.711 0.731,-3.343 2.692,-11.182l4.968 -20.353 1.276 -5.23c0,2.131 -0.062,3.124 -0.072,5.191 -0.001,0.181 -0.001,0.37 -0.001,0.569l0 33.709c0,2.471 0.073,2.963 0.073,5.28zm1.957 2.031c1.827,-1.614 4.972,-4.084 9.39,-7.74 10.14,1.709 21.035,4.058 31.639,6.709 1.356,0.339 2.708,0.683 4.052,1.031 -1.34,-0.001 -2.681,-0.002 -4.023,-0.003 -13.556,-0.007 -27.229,0.003 -41.058,0.003zm-19.088 -9.341c-5.922,1.237 -11.361,2.067 -24.105,4.902 -1.877,0.417 -3.913,0.879 -6.133,1.391 -3.821,0.882 -8.185,1.916 -13.219,3.141l13.161 3.479 6.121 1.618 2.487 0.658c3.881,0.899 7.317,1.421 11.047,2.356l11.047 2.355 -5.674 8.542c-1.119,1.947 10.594,-1.27 12.172,-1.637 1.767,8.465 3.539,16.821 5.453,25.146 0.472,2.054 0.953,4.105 1.444,6.156 1.268,5.292 2.606,10.579 4.051,15.88l3.532 -15.837 1.366 -6.121 0.303 -1.359c0.894,-4.249 1.734,-7.883 2.567,-12.054l2.403 -12.217c3.475,1.972 11.125,1.401 5.686,-7.311 9.854,-1.612 17.129,-3.069 26.275,-5.278 1.93,-0.466 3.944,-0.966 6.083,-1.507 3.473,-0.88 7.277,-1.87 11.589,-3.008 -3.872,-0.995 -7.765,-1.956 -11.67,-2.893 -2.043,-0.49 -4.089,-0.974 -6.136,-1.452 -8.442,-1.973 -16.916,-3.86 -25.329,-5.763 3.304,-5.084 -1.002,-9.196 -7.31,-6.092 -0.167,-2.011 -2.94,-14.063 -5.422,-25.172 -0.466,-2.084 -0.921,-4.135 -1.347,-6.08 -1.459,-6.662 -2.572,-12.084 -2.572,-13.349 -1.078,4.443 -2.153,8.913 -3.24,13.389 -0.495,2.04 -0.994,4.082 -1.496,6.123 -2.104,8.553 -4.28,17.097 -6.636,25.495 -3.352,-2.434 -10.151,0.678 -6.498,6.499z"/>
  <path class="fil0" d="M374.533 95.443c1.302,0.471 7.883,8.388 7.883,8.528 -1.575,9.721 -5.821,29.077 -7.956,38.99 0,-9.24 0.027,-40.462 0.073,-47.518zm-2.104 -1.219c-0.952,1.204 -6.632,6.129 -8.91,7.662 -1.105,-0.048 -2.955,-0.499 -8.457,-1.667 -2.763,-0.586 -6.016,-1.376 -8.995,-1.97 -4.127,-0.824 -16.088,-2.775 -19.536,-3.519 32.178,-0.21 35.743,-0.503 45.898,-0.506zm48.33 -0.812c-14.873,-0.012 -29.883,0 -45.081,0 1.827,-1.614 4.972,-4.084 9.39,-7.74 11.437,1.928 23.835,4.669 35.691,7.74zm-47.038 -46.78c0,2.318 -0.073,3.289 -0.073,5.76l0 33.709c0,2.471 0.073,2.963 0.073,5.28 -4.607,-3.836 -5.001,-4.216 -8.936,-7.984 0.438,-1.711 0.731,-3.343 2.692,-11.182l6.244 -25.583zm-10.633 30.94c-5.46,-3.965 -10.582,-7.441 -16.652,-10.559 1.965,4.162 6.088,10.577 10.154,17.058 -8.296,1.733 -15.644,2.667 -43.457,9.434l21.769 5.755c3.881,0.899 7.317,1.421 11.047,2.356l11.047 2.355 -5.674 8.542c-1.733,3.016 -3.395,6.09 -5.292,8.922 2.863,-0.238 14.091,-9.774 17.464,-10.559 3.327,15.941 6.675,31.497 10.948,47.182l5.201 -23.317c0.894,-4.249 1.734,-7.883 2.567,-12.054l2.403 -12.217c6.007,3.409 11.444,7.377 17.058,11.372 -3.21,-6.169 -5.998,-10.076 -11.372,-18.683 15.31,-2.505 24.396,-4.635 43.947,-9.793 -14.246,-3.661 -28.78,-6.861 -43.135,-10.108 3.615,-5.563 7.097,-10.988 10.56,-16.651 -5.819,3.513 -11.847,7.596 -17.87,10.559 -0.306,-3.68 -9.341,-40.996 -9.341,-44.601 -3.628,14.958 -7.221,30.208 -11.372,45.007z"/>
  <path class="fil0" d="M389.081 227.031c-6.648,0 -14.621,-11.814 -14.621,-17.87 0,6.056 -7.974,17.87 -14.621,17.87 6.647,0 14.621,11.814 14.621,17.87 0,-6.056 7.973,-17.87 14.621,-17.87z"/>
  <path class="fil0" d="M336.909 219.241c-67.731,4.016 -85.882,4.743 -173.24,7.79 87.358,3.048 105.509,3.774 173.24,7.791 5.616,-4.017 7.12,-4.743 14.363,-7.791 -7.243,-3.047 -8.747,-3.774 -14.363,-7.79z"/>
  <path class="fil0" d="M412.01 219.241c67.732,4.016 85.883,4.743 173.241,7.79 -87.358,3.048 -105.509,3.774 -173.241,7.791 -5.615,-4.017 -7.12,-4.743 -14.363,-7.791 7.243,-3.047 8.748,-3.774 14.363,-7.79z"/>
  <path class="fil0" d="M389.081 468.278c-6.648,0 -14.621,-11.814 -14.621,-17.87 0,6.056 -7.974,17.87 -14.621,17.87 6.647,0 14.621,11.814 14.621,17.87 0,-6.056 7.973,-17.87 14.621,-17.87z"/>
  <path class="fil0" d="M336.909 460.487c-67.731,4.017 -85.882,4.743 -173.24,7.791 87.358,3.047 105.509,3.774 173.24,7.79 5.616,-4.016 7.12,-4.743 14.363,-7.79 -7.243,-3.048 -8.747,-3.774 -14.363,-7.791z"/>
  <path class="fil0" d="M412.01 460.487c67.732,4.017 85.883,4.743 173.241,7.791 -87.358,3.047 -105.509,3.774 -173.241,7.79 -5.615,-4.016 -7.12,-4.743 -14.363,-7.79 7.243,-3.048 8.748,-3.774 14.363,-7.791z"/>
  <path class="fil0 str1" d="M535.291 267.645c0,1.215 0.801,2.188 1.741,2.726l3.289 1.585c1.786,0.696 3.076,0.476 4.192,3.557 0.752,2.075 0.931,4.897 0.931,7.159 0,9.649 0.494,43.347 -0.376,50.797 -0.342,2.922 0.362,4.643 -0.987,6.73 -2.299,3.553 -8.384,2.295 -8.384,6.643 0,1.925 1.982,4.062 4.061,4.062l29.242 0c1.32,0 0.307,-0.353 2.031,-0.813 1.013,-6.896 0.145,-5.22 -5.16,-7.837 -3.002,-1.481 -3.369,-3.349 -3.369,-6.784l0 -24.774 28.023 0c0.936,0 1.219,0.282 1.219,1.218l0 25.181c0,5.481 -4.353,5.418 -6.355,6.235 -1.405,0.574 -2.589,1.792 -2.493,3.46 0.109,1.878 1.5,2.844 2.35,4.114l30.054 0c0.954,0 1.554,-0.222 2.136,-0.707 1.919,-1.598 1.323,-5.855 -1.745,-6.589 -6.535,-1.561 -6.266,-3.546 -6.468,-8.965 -0.097,-2.593 -0.421,-2.7 -0.421,-7.702l0 -45.081c0,-11.033 4.2,-9.285 6.637,-10.421 2.916,-1.36 2.704,-2.782 2.704,-4.606 0,-1.846 -0.867,-2.119 -1.625,-3.249l-29.648 0c-3.555,0 -5.31,4.367 -2.377,6.438 1.826,1.289 5.465,2.318 6.802,5.383 1.166,2.674 0.449,19.752 0.449,24.325 -4.051,0.944 -22.509,0.406 -28.024,0.406 -0.936,0 -1.218,-0.282 -1.218,-1.218l0 -18.683c0,-2.47 0.406,-2.962 0.406,-5.279 2.361,-1.581 1.448,-2.25 4.957,-3.166 5.402,-1.41 4.212,-4.824 1.947,-8.206 -4.06,0 -7.31,0.489 -11.793,0.422 -2.091,-0.032 -3.074,-0.433 -5.67,-0.423 -5.7,0.022 -17.058,-1.477 -17.058,4.062z"/>
  <path class="fil0 str1" d="M206.318 279.017c0,7.616 0.634,55.585 -0.574,59.128 -0.727,2.131 -2.527,3.566 -4.582,4.338l-1.271 0.402c-1.937,0.62 -1.849,0.942 -3.32,1.927 0,2.49 -0.055,6.092 3.655,6.092l22.744 0c2.535,0 4.468,-1.163 4.468,-3.656 0,-6.058 -5.541,-2.648 -8.282,-8.37 -3.246,-6.775 0.174,-40.113 -1.872,-48.895 1.239,0.907 10.068,14.992 11.945,17.703l14.973 21.985c0.576,0.761 0.784,1.082 1.346,1.903l4.231 5.923c0.849,1.281 1.646,2.607 2.515,3.983 1.933,3.061 5.395,10.236 10.071,10.236 4.535,0 6.183,-1.284 6.917,-5.674 1.414,-8.456 -0.681,-54.579 0.631,-62.726 0.172,-1.063 -0.019,-7.168 2.351,-10.24 2.241,-2.905 7.566,0.911 7.566,-7.462 -1.299,-0.869 -1.617,-2.03 -3.656,-2.03 -4.72,0 -23.586,-0.83 -25.486,0.913 -1.205,1.104 -1.319,2.766 -1.319,4.367 10.998,7.364 9.747,2.811 9.747,20.713 0,10.288 0,20.577 0,30.866l-14.633 -23.544c-0.361,-0.629 -0.823,-1.271 -1.287,-1.962l-19.99 -30.371c-0.729,-0.723 -0.942,-0.982 -2.267,-0.982 -7.446,0 -14.891,0 -22.337,0 -0.44,0.656 -5.429,4.966 1.264,7.671 3.263,1.319 6.452,3.201 6.452,7.762z"/>
  <path class="fil0 str1" d="M282.266 308.665c0,10.464 2.848,20.12 7.067,27.049 2.277,3.739 4.257,5.963 7.724,8.522 7.196,5.311 14.502,8.556 24.214,8.683 3.479,0.046 1.64,0.394 7.297,0.018 5.084,-0.339 14.642,-3.967 18.811,-5.964 6.761,-3.237 6.774,-1.97 6.774,-14.752 0,-4.562 -1.257,-14.183 0.959,-16.099 1.085,-0.938 2.78,-1.523 4.167,-1.924 0.614,-0.178 1.012,-0.213 1.635,-0.396 3.366,-0.991 3.852,-7.574 -0.263,-7.574l-32.085 0c-2.417,2.648 -2.031,1.551 -2.031,5.28 0,3.246 3.964,3.323 6.594,3.966 3.084,0.755 3.56,3.517 3.56,7 0,4.706 0.287,10.586 -0.394,15.039 -0.382,2.501 -1.435,3.196 -5.057,4.284 -3.441,1.034 -8.837,0.865 -12.259,0.011 -4.063,-1.014 -6.097,-2.798 -8.511,-5.704 -0.572,-0.69 -0.074,-0.005 -0.55,-0.672l-3.853 -6.703c-3.926,-9.694 -3.898,-13.879 -3.898,-24.125 0,-10.592 3.803,-23.884 12.015,-29.412 4.498,-3.028 6.734,-3.892 12.353,-3.892 15.635,0 16.878,16.36 19.114,20.282 0.567,0.995 1.347,1.244 4.442,1.244 3.506,0 4.468,-3.027 4.468,-6.498l0 -17.87c0,-4.151 -5.568,-3.439 -6.982,-2.922 -2.716,0.993 -0.202,1.595 -3.703,-0.202 -0.96,-0.493 -1.632,-0.647 -2.665,-0.991 -7.63,-2.539 -17.047,-3.314 -25.14,-1.885 -1.765,0.312 -3.961,0.997 -5.728,1.582 -3.317,1.099 -8.201,3.684 -10.804,5.849 -0.064,0.054 -0.152,0.136 -0.216,0.19l-5.127 5.026c-0.054,0.065 -0.128,0.16 -0.182,0.225l-3.634 4.894c-4.924,8.393 -8.112,16.224 -8.112,28.441z"/>
  <path class="fil0 str1" d="M170.578 292.826l0.121 0.121c-0.008,-0.008 -0.161,-0.081 -0.121,-0.121zm0.406 -0.813l0.407 0 -0.339 0.474 -0.068 -0.474zm0 0c-1.471,1.079 -0.73,1.595 -2.026,4.472 -0.562,1.246 -1.466,3.105 -2.681,3.818 -2.341,1.375 -9.313,0.646 -12.757,0.646 0,-8.251 0.082,-16.543 -0.012,-24.788 -0.043,-3.746 -0.429,-2.83 9.76,-2.83 4.209,0 8.437,-0.078 11.408,1.289 1.896,0.872 2.395,0.867 3.36,2.625 2.204,4.015 2.138,7.328 4.045,8.546 1.391,0.889 4.095,0.41 5.179,-0.246 2.21,-1.338 0.643,-12.867 0.368,-16.674 -0.142,-1.974 -0.819,-3.609 -1.21,-5.287l-58.484 0c-1.389,2.074 -1.219,2.381 -1.219,5.686 9.929,6.648 9.747,-0.382 9.747,24.774 0,14.323 0.276,28.522 -0.401,42.649 -0.094,1.939 -0.602,2.802 -1.862,4.231 -2.075,2.354 -9.221,2.081 -7.586,7.206 0.441,1.381 1.058,1.851 2.173,2.328 2.464,1.054 42.671,0.445 51.133,0.446 10.339,0 8.044,0.683 10.723,-15.271 0.582,-3.467 2.263,-8.709 -0.408,-10.072 -2.248,-1.146 -4.663,-0.889 -6.192,1.442 -1.157,1.764 -1.509,4.658 -4.1,8.896 -1.04,1.702 -2.955,2.865 -4.934,3.595 -3.912,1.444 -12.334,0.179 -15.893,0.766 -6.662,1.099 -5.595,-3.784 -5.595,-11.694 0,-5.822 0,-11.643 0,-17.464 1.867,-0.042 1.433,-0.392 3.25,-0.437 1.935,-0.048 1.812,0.381 3.639,0.452 1.146,0.044 2.517,-0.117 3.641,0.015 1.367,0.16 1.682,0.376 3.685,0.376l2.679 7.474c0.507,0.785 2.11,1.853 3.416,1.899 1.56,0.054 3.087,-0.736 4.059,-1.25 0,-2.948 -0.48,-4.151 -0.424,-6.919 0.038,-1.897 0.312,-1.724 0.426,-3.232l-0.002 -18.279c-1.714,-0.142 -4.879,-2.213 -6.905,0.812z"/>
  <path class="fil0 str1" d="M474.776 286.734c0,8.615 4.023,13.661 7.557,17.623l2.752 2.528c0.992,0.671 2.119,1.222 3.081,1.793 1.188,0.706 2.042,1.128 3.401,1.878 4.674,2.58 10.664,4.778 13.374,6.926 1.991,1.578 1.93,1.156 4.331,3.393l0.406 0.406c4.517,4.837 5.562,9.604 2.139,15.897 -4.583,8.425 -18.376,5.551 -22.731,0.634l-3.354 -5.175c-0.987,-1.939 -1.306,-3.742 -2.177,-5.945 -1.875,-4.738 -5.093,-5.334 -9.185,-2.594 0,3.975 0.121,19.175 -0.812,21.12 2.066,1.383 1.073,2.796 4.501,3.215 2.935,0.359 3.81,0.866 6.104,1.612 10.29,3.348 19.779,4.509 29.772,0.216 3.695,-1.587 7.581,-3.801 9.984,-7.074 1.42,-1.934 3.284,-3.71 4.306,-6.253 2.585,-6.43 3.823,-13.931 1.147,-20.725 -1.493,-3.79 -3.023,-5.676 -5.421,-7.982 -0.06,-0.058 -0.134,-0.154 -0.195,-0.212l-7.96 -5.848c-0.592,-0.363 -1.141,-0.566 -1.906,-0.942l-0.987 -0.526c-9.636,-6.142 -20.663,-8.213 -20.663,-18.839 0,-11.704 17.3,-14.052 23.551,-3.244 1.264,2.186 1.752,4.181 2.435,6.906 0.87,3.466 2.027,4.867 5.287,4.867 4.406,0 4.12,-5.253 3.685,-8.965 -0.526,-4.475 0.515,-9.389 -0.522,-13.287 -0.733,-2.759 -5.866,-3.303 -9.256,-4.147 -9.254,-2.305 -16.193,-3.197 -25.639,-0.053 -9.81,3.265 -17.005,13.456 -17.005,22.797z"/>
  <path class="fil0 str1" d="M364.306 267.239c0,6.54 9.748,1.932 9.748,12.59l0 53.204c0,3.423 -0.32,7.657 -2.419,8.954 -1.997,1.234 -6.923,1.238 -6.923,4.449 0,4.313 2.545,4.904 6.902,4.877 4.056,-0.026 8.133,-0.022 12.19,0l11.369 -0.409c7.519,0 16.588,-0.176 23.96,0.429 6.51,0.535 5.773,-0.933 8.428,-14.341 0.954,-4.818 3.039,-9.751 0.704,-11.87 -1.861,-1.688 -4.901,-1.415 -6.311,0.577 -4.99,7.055 -3.611,15.051 -18.658,15.051 -2.13,0 -9.658,0.312 -11.176,-0.602 -0.776,-0.467 -1.415,-1.936 -1.415,-3.053l0 -57.672c0,-7.354 4.809,-6.936 7.464,-8.375 2.87,-1.556 5.001,-7.464 -2.996,-7.464l-26.399 0c-1.646,0 -4.468,2.242 -4.468,3.655z"/>
  <path class="fil0 str1" d="M130.37 374.866l0 2.436c0.933,0.625 1.106,1.048 2.038,1.618 0.819,0.502 1.587,0.644 2.345,1.311 1.35,1.186 1.543,3.896 2.066,5.65 2.196,7.365 10.569,37.147 12.64,40.564 1.737,2.864 7.058,3.974 8.994,-1.566 0.612,-1.75 1.405,-4.059 1.888,-5.828 2.504,-9.178 4.125,-13.738 6.582,-24.284 0.309,0.486 -0.002,-0.284 0.389,0.829 1.2,3.415 3.022,13.488 4.648,17.689l4.458 13.006c1.352,2.419 2.08,2.591 4.314,2.591 5.017,0 6.092,-6.102 7.54,-11.954 1.362,-5.508 2.581,-10.36 4.189,-15.306 1.608,-4.942 2.444,-10.387 3.961,-15.534 3.312,-11.235 3.946,-6.372 5.735,-8.917 0.785,-1.116 0.222,-2.829 -0.306,-3.93 -2.717,0 -7.142,0.257 -9.644,-0.103 -1.442,-0.208 -2.551,-0.304 -4.584,-0.319 -3.795,-0.029 -3.642,0.211 -3.642,3.265 0,2.344 4.061,2.989 4.061,4.468 0,4.255 -1.561,9.963 -2.605,13.64 -1.13,3.976 -3.081,8.921 -3.081,13.571l-4.633 -16.08c-1.481,-5.963 -3.49,-10.335 -3.49,-17.63 -2.422,-2.099 -2.625,-1.061 -6.145,-0.963 -1.788,0.05 -7.606,-1.467 -8.529,1.745 -0.505,1.758 0.247,2.772 1.206,4.164 1.546,2.244 0.138,4.908 -0.99,9.432 -0.882,3.537 -1.819,6.096 -2.686,9.498l-1.616 7.319c-0.318,1.43 -0.109,1.353 -1.14,2.109 0,-3.919 -1.972,-9.793 -2.989,-13.257 -0.666,-2.268 -1.057,-4.144 -1.642,-6.481 -1.085,-4.345 -1.461,-4.242 -1.461,-8.692 4.307,-2.885 4.368,-6.092 -3.656,-6.092 -4.343,0 -14.215,-1.073 -14.215,2.031z"/>
  <path class="fil0 str1" d="M441.066 280.235l0 54.017c0,13.013 -8.962,5.639 -9.226,12.636 -0.08,2.141 1.204,4.016 3.54,4.016l28.43 0c2.84,0 2.715,-1.426 3.05,-3.902 0.793,-5.855 -8.736,-1.763 -8.736,-12.344l0 -57.266c0,-7.674 8.935,-3.464 8.935,-10.559 0,-0.018 -0.58,-2.478 -2.246,-3.034 -1.628,-0.544 -23.839,-0.215 -27.402,-0.215 -2.894,0 -4.404,0.639 -5.435,2.712 -1.133,2.28 0.075,3.77 2.055,4.73 2.4,1.162 3.535,0.838 5.337,2.785 1,1.081 0.939,1.174 1.278,2.783 0.278,1.315 0.42,2.023 0.42,3.641z"/>
  <path class="fil0 str1" d="M294.044 424.415zm0 -0.813l0 0.813zm0 -0.813l0 0.813 -0.406 -0.813 0 -0.406 -0.653 -0.565c-2.544,-2.598 -2.199,-4.395 -2.19,-7.557 0.011,-3.79 0,-7.582 0,-11.373 18.774,0 16.676,-1.668 16.653,4.874 -0.013,3.366 0.354,7.156 -0.215,10.345 -0.954,5.346 -4.215,2.983 -5.066,5.901 -1.375,4.711 8.497,4.061 11.372,4.061 8.525,0 10.966,1.219 10.966,-4.874 -0.384,-0.256 -0.694,-0.566 -0.92,-0.705 -5.381,-3.304 -4.36,1.389 -4.36,-21.632l0.151 -20.562c0.83,-2.846 2.705,-2.463 3.91,-2.182 0.39,-1.459 2.1,-2.563 0.406,-6.092 -2.288,0 -2.582,0.404 -4.858,0.421l-10.162 -0.43c-2.423,-0.13 -3.517,0.268 -5.287,0.415 -0.387,1.663 -0.406,1.907 -0.406,4.061 2.56,1.714 4.615,2.426 4.628,4.346l-0.16 13.931 -16.652 0c-0.842,-10.127 0,-6.852 0,-15.434 1.753,-1.173 5.455,-2.277 4.751,-5.112 -0.742,-2.995 -4.332,-1.779 -7.592,-1.791 -13.332,-0.048 -14.623,-2.697 -14.623,4.873 3.988,0 5.726,2.198 5.698,6.486 -0.072,11.314 0.387,22.859 -0.436,34.109 -0.094,1.279 -0.357,1.46 -0.388,2.862 -0.864,0.201 -1.559,0.482 -2.384,0.864 -0.724,0.336 -1.309,0.616 -1.85,1.433 -1.203,1.818 0.127,2.67 0.579,4.607 2.072,0 3.443,0.418 6.09,0.407 2.869,-0.011 10.552,0.179 12.92,-0.485 1.893,-0.531 1.926,-3.793 0.484,-4.796z"/>
  <path class="fil0 str1" d="M363.088 400.046l-2.031 0 0 -19.901c5.361,0 12.184,-1.329 12.184,9.748 0,1.947 -1.247,6.389 -2.515,7.638 -1.785,1.756 -4.223,2.515 -7.638,2.515zm-18.683 -26.805c-0.083,1.008 -2.071,5.693 4.874,7.311l-0.008 27.625c0.139,2.787 0.808,1.624 0.178,5.439 -0.202,1.224 -0.161,1.821 -0.16,3.091 0.002,5.986 -1.849,4.997 -5.29,7.301 0,1.469 -0.054,2.446 0.788,3.68 0.551,0.806 1.132,1.194 2.461,1.194 6.783,0 14.753,1.007 18.683,-1.624l0 -3.25 -4.874 -3.249c0,-2.476 0.219,-5.168 -0.169,-7.548 -0.548,-3.365 0.169,-4.126 0.169,-7.073 2.02,0 2.674,-0.284 3.8,1.074 1.186,1.43 -0.138,0.854 2.937,5.999 2.749,4.598 5.64,12.052 9.083,14.472 1.842,1.294 10.825,2.469 13.442,0.813 2.928,-1.853 1.203,-4.686 -0.004,-5.316 -1.196,-0.624 -2.086,-0.368 -3.524,-1.349 -1.039,-0.709 -3.281,-4.485 -3.944,-5.804 -1.229,-2.448 -2.072,-4.083 -3.438,-6.309 -1.013,-1.652 -2.733,-4.6 -2.919,-6.829 2.381,-0.555 4.854,-2.232 6.169,-3.984 4.803,-6.397 4.868,-22.405 -8.824,-25.445 -2.428,-0.54 -28.953,-0.404 -29.43,-0.219z"/>
  <path class="fil0 str1" d="M543.413 380.145c4.237,0 6.828,-0.573 9.187,2.592 3.723,4.995 1.613,13.255 -0.132,14.992 -1.725,1.715 -5.704,2.317 -9.055,2.317l0.008 -8.537c-0.168,-3.404 -0.881,-2.063 -0.111,-7.406 0.186,-1.286 0.103,-2.643 0.103,-3.958zm-15.839 -6.904c-0.73,3.135 -1.937,3.789 1.894,5.822 1.439,0.763 2.574,1.503 2.574,3.519 0,5.822 0.457,32.988 -0.391,36.568 -0.207,0.874 -0.286,2.082 -0.976,2.679 -1.366,1.182 -3.913,-0.124 -3.913,3.398 0,1.4 0.3,1.572 0.406,2.843 1.454,0.338 1.908,0.812 3.655,0.812 3.733,0 15.331,0.715 17.198,-1.085 1.012,-0.975 1.153,-2.31 0.567,-3.65 -0.936,-2.141 -1.441,-1.073 -3.359,-1.955 -2.892,-1.329 -1.816,-10.406 -1.816,-15.648 4.557,0 3.101,2.005 7.796,9.669 6.619,10.805 4.879,13.075 17.385,13.075 4.189,0 5.791,-2.883 4.217,-5.422 -1.452,-2.343 -3.116,0.576 -6.424,-4.961l-4.091 -7.281c-1.517,-2.848 -3.855,-5.899 -3.855,-8.329 3.135,-2.099 6.945,-1.97 8.535,-11.366 1.007,-5.948 -1.142,-11.517 -4.655,-14.446l-0.661 -0.557c-1.784,-1.498 -3.064,-2.329 -5.499,-3.03 -1.963,-0.566 -6.759,-1.178 -8.849,-0.83 -4.416,0.736 -14.664,0.175 -19.738,0.175z"/>
  <path class="fil0 str1" d="M457.718 421.165l0 -17.464c1.866,-0.155 7.238,-1.093 9.647,1.319 1.106,1.107 6.799,14.43 -5.47,16.274 -2.517,0.378 -1.862,0.064 -4.177,-0.129zm3.249 -24.368l-3.249 0c0,-18.418 -1.164,-17.209 2.878,-16.719 1.756,0.213 2.492,-0.28 4.026,0.474 1.377,0.498 0.144,-0.568 1.331,1.106 1.653,2.332 2.693,7.725 1.329,10.488 -2.234,4.528 -1.84,3.085 -3.572,3.738 -1.117,0.422 -1.341,0.913 -2.743,0.913zm-19.901 -23.15l0 3.655c1.516,1.015 4.421,2.913 4.721,4.214 0.46,1.988 -0.125,4.222 0.322,6.99 0.662,4.099 -0.027,23.012 -0.153,28.207 -0.05,2.067 -0.422,2.216 -0.422,4.452 -3.747,1.983 -5.733,2.235 -4.312,5.923 0.435,1.129 1.038,1.794 2.281,1.794 14.358,0 29.727,2.242 36.484,-8.191 2.978,-4.598 2.598,-12.158 -0.245,-16.675 -1.23,-1.953 -3.888,-4.247 -6.184,-4.782l0 -0.812c1.501,-0.35 1.348,-0.34 2.302,-1.353l0.978 -1.052c3.81,-4.285 4.152,-10.445 2.013,-15.073l-2.275 -3.005c-2.325,-2.322 -6.038,-4.237 -9.966,-4.655 -5.097,-0.543 -16.233,0.37 -19.755,-0.147 -2.52,-0.37 -3.537,-0.606 -5.789,0.51z"/>
  <path class="fil0 str1" d="M402.483 400.452c0,-4.659 0.999,-10.61 2.436,-13.81 3.842,-8.561 12.227,-8.723 15.958,-5.396 1.359,1.211 2.14,2.584 3.003,4.307 4.534,9.053 3.754,25.506 -1.132,32.694 -4.282,6.299 -13.234,5.803 -17.477,-3.524 -1.976,-4.343 -2.788,-9.276 -2.788,-14.271zm-12.184 -2.03c0,5.852 -0.365,10.71 2.026,15.843 4.738,10.171 12.115,15.429 23.967,15.429 4.892,0 10.181,-2.662 13.317,-5.365l1.648 -1.602c6.987,-7.734 7.779,-14.264 7.779,-25.118 0,-5.158 -1.719,-10.897 -4.385,-15.106 -0.189,-0.298 -0.289,-0.446 -0.458,-0.69 -1.622,-2.357 -4.391,-4.736 -6.767,-6.304 -5.201,-3.432 -8.225,-3.08 -13.977,-3.08 -4.363,0 -8.605,1.221 -11.612,3.415 -0.556,0.406 -1.434,1.028 -1.854,1.395 -0.432,0.376 -0.118,0.072 -0.608,0.611 -5.299,5.833 -9.076,12.318 -9.076,20.572z"/>
  <path class="fil0 str1" d="M484.929 374.866c0,5.712 5.28,3.185 5.28,7.716l0 34.928c0,7.165 -3.051,3.731 -4.836,6.142 -1.533,2.071 -0.912,5.23 4.43,5.23 4.365,0 28.103,0.5 30.445,-0.422 3.045,-1.197 3.181,-8.144 3.645,-12.647 0.444,-4.306 -3.576,-4.152 -5.18,-2.696 -0.89,0.808 -0.821,1.306 -1.296,2.359 -0.377,0.835 -2.273,3.844 -2.931,4.38 -1.72,1.398 -10.071,1.875 -12.499,1.309 -0.041,-1.836 -0.406,-1.614 -0.406,-3.655l0 -12.184c0,-2.193 5.342,-1.255 6.152,-0.466 0.575,0.558 0.135,0.198 0.658,0.966 2.486,3.646 1.62,4.72 6.593,3.561 1.122,-2.34 0.822,-5.903 0.811,-9.341 -0.016,-5.366 0.846,-4.436 0.322,-5.96 -0.304,-0.884 -0.504,-1.204 -0.727,-2.163 -1.457,-0.032 -2.986,-0.992 -4.642,0.232 -0.454,0.335 -1.022,1.351 -1.278,1.971 -0.462,1.117 -0.13,1.016 -1.215,2.035 -2.687,2.524 -1.559,1.042 -7.08,1.042 0.828,-1.725 0.443,-10.185 0.398,-13.411 -0.062,-4.471 -1.291,-3.647 9.349,-3.647 3.574,0 3.999,4.575 5.726,6.865 2.722,3.61 5.646,0.75 5.646,-0.773 0,-6.601 0.776,-8.866 -1.624,-13.402l-35.335 0c-0.212,0.911 -0.406,0.934 -0.406,2.031z"/>
  <path class="fil0 str1" d="M570.219 378.521c0,2.794 0.287,7.496 0.812,9.747 2.203,0.183 1.362,0.406 4.874,0.406 1.921,-3.632 0.404,-10.488 10.559,-8.122l-0.011 23.567c-0.008,5.238 1.059,6.387 -0.016,14.988 -0.55,4.4 -4.847,3.131 -4.847,6.526 0,2.421 1.64,3.249 4.062,3.249l13.808 0c2.255,0 2.409,-0.406 4.468,-0.406 0.288,-1.08 2.82,-4.782 -2.275,-6.254 -1.801,-0.521 -3.005,-1.789 -3.005,-3.9l0 -37.364c1.311,-0.629 1.884,-0.813 3.656,-0.813 6.112,0 4.888,3.699 8.122,8.529 8.457,0 5.1,-2.372 4.875,-11.373 -0.084,-3.376 -0.055,-4.466 -4.469,-4.466l-21.525 0c-1.974,0 -2.806,0.381 -4.061,0.381 -1.256,0 -2.088,-0.381 -4.062,-0.381 -8.681,0 -10.965,-1.365 -10.965,5.686z"/>
  <path class="fil0 str1" d="M228.656 388.674c5.962,0 4.088,-2.039 6.07,-6.114 1.467,-3.018 4.843,-2.415 8.551,-2.415 0.044,1.967 0.665,3.054 0.358,5.636 -0.658,5.538 -0.361,23.487 -0.347,30.116 0.003,1.648 -0.318,4.405 -0.751,5.341 -0.622,1.343 -2.574,1.828 -4.134,1.958l0 4.062c1.847,0.977 2.357,1.624 5.28,1.624l15.433 0c0.734,-1.096 1.24,-1.173 1.508,-3.004 0.729,-4.973 -5.569,-1.602 -5.569,-7.962l0 -36.552c0,-2.148 5.507,-1.478 7.028,-0.124 0.082,0.073 0.989,1.036 0.991,1.04 0.833,1.218 0.15,0.253 0.622,1.409l1.312 2.343c0.71,1.401 0.617,1.445 1.419,2.642 5.902,0 5.446,0.843 4.881,-10.973 -0.088,-1.837 -0.414,-2.188 -0.414,-4.46l-42.644 0c-2.24,0 -0.874,3.774 -1.231,8.11 -0.124,1.5 -0.695,2.455 -0.262,4.336 0.431,1.876 1.022,1.678 1.899,2.987z"/>
  <path class="fil0 str1" d="M203.069 375.678c0,0.843 -0.15,0.757 0.62,1.41 0.055,0.047 0.156,0.139 0.218,0.189 5.561,4.489 4.035,2.508 4.025,8.137 -0.008,5.104 0.417,9.218 0.417,14.632 0,3.8 0.661,19.116 -1.295,21.449 -1.654,1.975 -4.391,0.025 -4.391,4.138 0,1.964 1.285,3.249 3.249,3.249l14.215 0c4.819,0 5.172,-3.268 3.749,-5.375 -1.185,-1.754 -1.773,-0.477 -3.009,-1.733 -1.035,-1.051 -1.146,-2.826 -1.146,-4.264l0 -34.928c0,-4.524 4.467,-2.693 4.467,-6.904 0,-4.261 -6.671,-2.437 -11.778,-2.437 -3.858,0 -7.128,-0.813 -8.514,0.827 -0.052,0.063 -0.827,1.563 -0.827,1.61z"/>
  <path class="fil3" d="M372.429 94.224c-10.155,0.003 -13.72,0.296 -45.898,0.506 3.448,0.744 15.409,2.695 19.536,3.519 2.979,0.594 6.232,1.384 8.995,1.97 5.502,1.168 7.352,1.619 8.457,1.667 2.278,-1.533 7.958,-6.458 8.91,-7.662z"/>
  <path class="fil3" d="M364.785 83.397c3.935,3.768 4.329,4.148 8.936,7.984 0,-2.317 -0.073,-2.809 -0.073,-5.28l0 -33.709c0,-2.471 0.073,-3.442 0.073,-5.76l-6.244 25.583c-1.961,7.839 -2.254,9.471 -2.692,11.182z"/>
  <path class="fil3" d="M385.068 85.672c-4.418,3.656 -7.563,6.126 -9.39,7.74 15.198,0 30.208,-0.012 45.081,0 -11.856,-3.071 -24.254,-5.812 -35.691,-7.74z"/>
  <path class="fil3" d="M382.416 103.971c0,-0.14 -6.581,-8.057 -7.883,-8.528 -0.046,7.056 -0.073,38.278 -0.073,47.518 2.135,-9.913 6.381,-29.269 7.956,-38.99z"/>
  <path class="fil0" d="M391.518 164.892l-0.793 0.467 0.793 -0.467zm-34.116 0l0.121 0.121c-0.008,-0.008 -0.161,-0.08 -0.121,-0.121zm-1.218 -0.406l0.873 0.223 -0.873 -0.223zm0 0c-5.067,-0.422 -21.314,-8.532 -47.941,-8.919 -2.161,-0.032 -1.748,-0.427 -6.482,-0.422l-23.158 1.616c-6.318,0.483 -4.866,3.882 -4.866,-19.486 0,-38.042 0,-76.083 0,-114.125 3.931,0 9.079,-0.483 11.778,0.812l0 121.842c2.078,0.996 11.092,0.917 15.434,1.217 11.062,0.766 21.668,3.699 32.328,6.662 4.138,1.15 21.027,7.996 22.907,10.803zm18.276 4.874c-0.073,-0.063 -0.187,-0.256 -0.219,-0.187l-22.518 -14.847c-15.315,-8.938 -41.304,-14.614 -59.303,-14.614l0 -132.808c3.345,0 8.519,-0.137 11.459,0.319l5.601 0.491c3.977,0.279 7.492,0.684 11.268,1.323 7.461,1.261 13.277,2.486 19.875,4.899 4.223,1.544 4.392,1.304 8.933,3.251 3.089,1.325 5.827,2.517 8.658,3.932l7.989 4.195c9.741,5.115 5.493,6.432 11.899,2.697l20.85 -10.829c18.32,-7.356 36.711,-10.278 57.142,-10.278 0.105,1.271 0.406,1.443 0.406,2.843l0 128.746c0,1.47 -1.903,1.374 -5.278,1.627l-6.535 0.369c-11.745,1.31 -24.158,3.517 -34.775,7.873 -1.026,0.42 -1.352,0.617 -2.235,1.034 -0.905,0.427 -1.567,0.734 -2.514,1.118 -6.569,2.664 -7.974,2.85 -14.132,6.989 -0.468,0.314 -0.4,0.272 -0.947,0.631l-3.307 2.016c-6.043,3.489 -10.179,7.778 -12.317,9.21zm-115.75 -130.371c5.327,0 8.529,-0.784 8.529,1.219l0 83.258c0.003,3.336 -0.419,4.961 -0.407,8.122 0.022,5.549 0.001,11.103 0.001,16.653 0,6.056 0.406,10.627 0.406,16.651 6.98,0 9.728,-1.552 14.616,-1.63 4.745,-0.075 8.962,-1.213 13.814,-1.213 17.671,0 17.428,0.516 34.567,2.798 4.423,0.588 7.988,1.112 11.977,2.237 2.002,0.565 3.731,1.318 5.52,1.791 1.313,0.348 1.708,0.443 2.765,0.891 0.78,0.331 1.725,0.812 2.843,0.812l-67.826 0.406c-1.898,-0.002 -2.912,-0.029 -4.646,0.26 -1.628,0.27 -2.191,-0.26 -4.289,-0.26l-17.87 0c0,-8.713 -0.406,-16.041 -0.406,-24.774l0 -60.921c0,-6.319 1.085,-26.455 0.244,-31.11 -0.407,-2.247 -0.244,-5.013 -0.244,-7.473l0.406 -7.717zm231.499 26.806c0,9.456 -0.514,88.164 0.244,92.355 0.643,3.56 0.453,10.251 -0.244,13.24 -15.776,0 -30.67,-0.406 -46.706,-0.406 -15.704,0 -31.408,0 -47.112,0l2.185 -1.064c2.99,-0.991 2.508,-1.358 5.023,-1.881 7.517,-1.566 11.537,-3.001 20.497,-4.278 2.327,-0.331 4.424,-0.234 6.729,-0.582 14.328,-2.162 22.414,-0.958 36.226,0.097 4.895,0.374 9.881,1.627 14.629,2.022 0,-11.681 -0.406,-22.014 -0.406,-33.709l0 -67.825c0,-8.734 0.406,-16.061 0.406,-24.775 3.646,0 5.474,-0.305 8.529,0.406 0.681,2.922 0.876,9.349 0.319,12.909 -0.579,3.702 -0.319,9.107 -0.319,13.491zm-98.691 99.097c2.444,-2.124 9.529,-5.338 12.994,-6.906 0.686,-0.311 1.349,-0.498 2.035,-0.808 12.713,-5.753 24.439,-8.221 38.549,-9.781 1.212,-0.134 0.792,-0.311 2.464,-0.38l10.972 -0.399c3.215,0.02 2.93,0.08 4.872,-1.221 0,-10.63 0.406,-19.877 0.406,-30.46l0 -46.3c0,-6.856 -1.36,-43.314 0.406,-45.081 2.324,-1.115 7.464,-0.406 10.56,-0.406 0,5.142 0.406,8.748 0.406,13.809 0,5.22 -0.406,8.954 -0.406,14.214l0 86.508c0,5.341 0.848,12.345 0.11,17.168 -0.627,4.101 -0.57,1.916 -7.826,1.514 -7.902,-0.438 -15.126,-1.886 -23.965,-1.221 -9.539,0.719 -20.3,1.819 -29.077,3.415 -5.704,1.037 -11.406,2.839 -16.866,4.659 -1.593,0.53 -3.967,1.537 -5.634,1.676zm-105.182 -164.404c-2.144,3.954 0.602,16.232 -1.633,16.164l-17.867 -0.501c1.117,2.429 0.592,12.163 -0.003,14.715 -3.23,0 -6.907,0.3 -9.91,-0.243 -3.034,-0.548 -7.508,-0.335 -9.991,0.243l0 150.678c1.549,0.129 1.616,0.414 3.645,0.416l13.326 -0.097c5.342,-0.837 81.068,-0.319 90.656,-0.319 3.788,0 6.239,2.028 8.931,3.253 4.829,2.196 11.361,3.266 16.714,1.678 0.738,-0.219 1.427,-0.36 2.212,-0.63l6.132 -2.397c1.579,-0.838 1.838,-1.904 3.782,-1.904 12.927,0 100.078,-0.481 105.288,0.329 1.769,0.275 2.349,-0.293 3.963,-0.329 0,-6.958 0.379,-13.053 0.407,-20.308 0.013,-3.427 -0.407,-5.931 -0.407,-9.746l0 -117.374c0,-2.042 0.365,-1.819 0.406,-3.656l-20.307 0.406 0 -15.027c-2.172,0 -2.241,0.35 -4.046,0.422l-13.824 0.391 0 -12.185c0,-2.041 -0.365,-1.818 -0.406,-3.655 -2.125,-0.176 -3.093,-0.812 -5.686,-0.812 -19.922,0 -29.823,1.319 -49.471,6.576 -2.917,0.781 -6.223,2.106 -9.071,3.114 -3.158,1.117 -5.839,2.386 -8.739,3.85l-11.904 6.372c-1.667,0.975 -2.296,1.913 -3.667,2.832l-16.927 -9.472c-3.244,-1.376 -5.871,-2.466 -9.19,-3.807 -3.514,-1.419 -6.208,-2.268 -9.977,-3.425 -8.181,-2.51 -25.104,-5.684 -33.76,-5.636 -8.924,0.05 -7.117,-0.909 -18.676,0.084z"/>
 </g>
</svg>
